<?xml version="1.0" standalone="no"?><svg xmlns="http://www.w3.org/2000/svg" viewBox="0 0 1440 320"><path fill="#0099ff" fill-opacity="1" d="M0,256L6.2,240C12.3,224,25,192,37,170.7C49.2,149,62,139,74,117.3C86.2,96,98,64,111,90.7C123.1,117,135,203,148,240C160,277,172,267,185,224C196.9,181,209,107,222,85.3C233.8,64,246,96,258,112C270.8,128,283,128,295,144C307.7,160,320,192,332,197.3C344.6,203,357,181,369,197.3C381.5,213,394,267,406,250.7C418.5,235,431,149,443,106.7C455.4,64,468,64,480,80C492.3,96,505,128,517,170.7C529.2,213,542,267,554,282.7C566.2,299,578,277,591,234.7C603.1,192,615,128,628,117.3C640,107,652,149,665,170.7C676.9,192,689,192,702,165.3C713.8,139,726,85,738,69.3C750.8,53,763,75,775,112C787.7,149,800,203,812,224C824.6,245,837,235,849,213.3C861.5,192,874,160,886,133.3C898.5,107,911,85,923,112C935.4,139,948,213,960,218.7C972.3,224,985,160,997,160C1009.2,160,1022,224,1034,234.7C1046.2,245,1058,203,1071,202.7C1083.1,203,1095,245,1108,229.3C1120,213,1132,139,1145,90.7C1156.9,43,1169,21,1182,42.7C1193.8,64,1206,128,1218,138.7C1230.8,149,1243,107,1255,101.3C1267.7,96,1280,128,1292,160C1304.6,192,1317,224,1329,213.3C1341.5,203,1354,149,1366,154.7C1378.5,160,1391,224,1403,234.7C1415.4,245,1428,203,1434,181.3L1440,160L1440,0L1433.8,0C1427.7,0,1415,0,1403,0C1390.8,0,1378,0,1366,0C1353.8,0,1342,0,1329,0C1316.9,0,1305,0,1292,0C1280,0,1268,0,1255,0C1243.1,0,1231,0,1218,0C1206.2,0,1194,0,1182,0C1169.2,0,1157,0,1145,0C1132.3,0,1120,0,1108,0C1095.4,0,1083,0,1071,0C1058.5,0,1046,0,1034,0C1021.5,0,1009,0,997,0C984.6,0,972,0,960,0C947.7,0,935,0,923,0C910.8,0,898,0,886,0C873.8,0,862,0,849,0C836.9,0,825,0,812,0C800,0,788,0,775,0C763.1,0,751,0,738,0C726.2,0,714,0,702,0C689.2,0,677,0,665,0C652.3,0,640,0,628,0C615.4,0,603,0,591,0C578.5,0,566,0,554,0C541.5,0,529,0,517,0C504.6,0,492,0,480,0C467.7,0,455,0,443,0C430.8,0,418,0,406,0C393.8,0,382,0,369,0C356.9,0,345,0,332,0C320,0,308,0,295,0C283.1,0,271,0,258,0C246.2,0,234,0,222,0C209.2,0,197,0,185,0C172.3,0,160,0,148,0C135.4,0,123,0,111,0C98.5,0,86,0,74,0C61.5,0,49,0,37,0C24.6,0,12,0,6,0L0,0Z" data-darkreader-inline-fill="" style="--darkreader-inline-fill:#007acc;"></path></svg>